<svg width="110" height="35" viewBox="0 0 110 35" fill="none" xmlns="http://www.w3.org/2000/svg">
<path d="M16.6966 7.60715L22.474 12.3908L22.7119 12.1345C24.6095 10.0862 25.5556 9.06075 25.2702 8.08552C24.9821 7.11029 23.6528 6.8275 20.9887 6.2672L20.2989 6.12184C19.543 5.96326 19.1625 5.88133 18.8638 5.66197C18.5652 5.44261 18.3802 5.10696 18.0101 4.43831L17.6719 3.83044C16.3689 1.47825 15.7161 0.302158 14.6827 0.310087C13.6494 0.315373 12.9199 1.50204 11.461 3.87008L11.0831 4.48324C10.6682 5.15718 10.462 5.49283 10.1475 5.71747C9.83299 5.93948 9.44977 6.02405 8.68333 6.1932L7.98296 6.34649C5.28191 6.94114 3.92874 7.23979 3.57723 8.21766C3.22573 9.19818 4.10582 10.2104 5.86863 12.2375L6.15407 12.5679L12.1455 7.60715C13.4643 6.51563 15.3778 6.51563 16.6966 7.60715Z" fill="#FF7700"/>
<path fill-rule="evenodd" clip-rule="evenodd" d="M24.9081 23.0073L24.2183 31.4805C24.0967 32.9843 22.8387 34.1445 21.3296 34.1445H7.5125C6.0034 34.1445 4.74538 32.9869 4.6238 31.4805L3.93401 23.0073C3.93136 22.9677 3.90229 22.9333 3.86265 22.9254L2.44076 22.64C1.21974 22.3968 0.196935 21.448 0.0277886 20.2164C-0.107 19.2518 0.252436 18.3241 1.02152 17.6872L12.5737 8.12249C13.6467 7.23447 15.1981 7.23447 16.2711 8.12249L27.6832 17.5709C28.6425 18.3664 29.0918 19.6826 28.6584 20.8507C28.3201 21.7625 27.5616 22.41 26.5837 22.6056L24.9821 22.9254C24.9425 22.9333 24.9134 22.9651 24.9108 23.0073H24.9081Z" fill="white"/>
<path d="M42.5098 13.5431C41.746 13.5431 40.9689 13.4004 40.1787 13.1124C39.3885 12.8269 38.659 12.4014 37.9904 11.8358C37.3217 11.2729 36.7879 10.5778 36.3888 9.75322C35.9897 8.92863 35.7888 7.97719 35.7888 6.90152C35.7888 5.82586 35.9871 4.8797 36.3888 4.06304C36.7879 3.24638 37.3164 2.56187 37.9772 2.00422C38.6379 1.4492 39.3621 1.02634 40.1523 0.740906C40.9425 0.455472 41.7116 0.310112 42.4569 0.310112C43.0991 0.310112 43.6753 0.384113 44.188 0.532116C44.7007 0.680119 45.1342 0.857194 45.491 1.06598C45.8478 1.27477 46.1041 1.45713 46.26 1.61307C46.5561 1.83771 46.8151 2.065 47.0423 2.28965C47.267 2.5143 47.3727 2.8103 47.3542 3.17502C47.3357 3.36531 47.2749 3.56089 47.1719 3.76175C47.0688 3.96261 46.9366 4.16611 46.7807 4.3749C46.26 5.10435 45.7394 5.43471 45.2187 5.36335C44.9571 5.31049 44.7192 5.22328 44.5025 5.1017C44.2858 4.98013 44.077 4.85327 43.8761 4.72377C43.6753 4.59426 43.4639 4.48591 43.2392 4.39869C43.0146 4.31147 42.7529 4.26919 42.4569 4.26919C41.9521 4.26919 41.5028 4.38283 41.1011 4.60748C40.702 4.83213 40.3849 5.14663 40.1496 5.54571C39.9144 5.94479 39.7981 6.40466 39.7981 6.92531C39.7981 7.44596 39.9144 7.8794 40.1496 8.27848C40.3849 8.67756 40.6967 8.9947 41.0879 9.22992C41.479 9.46514 41.9177 9.58143 42.404 9.58143C42.7 9.58143 42.9564 9.54707 43.1731 9.47836C43.3898 9.40964 43.5775 9.32507 43.7334 9.22992C43.8894 9.13478 44.0109 9.06078 44.0981 9.00792C44.3069 8.86784 44.5052 8.74363 44.6981 8.62998C44.8884 8.51634 45.0892 8.46084 45.298 8.46084C45.5412 8.46084 45.7923 8.5507 46.0539 8.7357C46.3155 8.91806 46.601 9.20878 46.9128 9.60786C47.1903 9.97258 47.3516 10.3109 47.3939 10.6227C47.4361 10.9346 47.3621 11.2306 47.1719 11.5081C46.9816 11.7856 46.6856 12.0552 46.2865 12.3142C46.1464 12.4358 45.9006 12.5917 45.5438 12.782C45.187 12.9723 44.7536 13.1467 44.2409 13.3026C43.7281 13.4586 43.152 13.5379 42.5098 13.5379V13.5431Z" fill="white"/>
<path d="M59.8578 13.411C59.2156 13.411 58.7425 13.2973 58.4386 13.0727C58.1346 12.848 57.984 12.5679 57.984 12.2402L58.2456 11.7988C58.1426 11.9732 57.9417 12.1847 57.6457 12.4357C57.3497 12.6868 56.9691 12.9141 56.4987 13.1123C56.0309 13.3105 55.4468 13.411 54.7544 13.411C53.9562 13.411 53.195 13.2365 52.4762 12.8903C51.7547 12.5441 51.1177 12.0604 50.5627 11.4447C50.0077 10.8289 49.569 10.1285 49.2465 9.34883C48.9241 8.56653 48.7655 7.74194 48.7655 6.87507C48.7655 6.00819 48.9267 5.21268 49.2465 4.43831C49.569 3.66658 50.0103 2.97942 50.5759 2.37948C51.1389 1.77954 51.7784 1.30646 52.4894 0.960241C53.2003 0.61402 53.9562 0.439588 54.7544 0.439588C55.3966 0.439588 55.9437 0.529447 56.3956 0.71445C56.8475 0.896811 57.2255 1.11089 57.5294 1.35403C57.8333 1.59718 58.0633 1.8324 58.2192 2.05705L58.0104 1.69233C57.9919 1.27475 58.1373 0.960241 58.4412 0.74088C58.7451 0.524161 59.2262 0.415802 59.8869 0.415802C60.5133 0.415802 60.9599 0.510947 61.2295 0.701236C61.4991 0.891525 61.6629 1.1426 61.7237 1.45711C61.7845 1.76897 61.8136 2.09933 61.8136 2.44555V11.4341C61.8136 11.7644 61.7818 12.0842 61.7237 12.3987C61.6629 12.7106 61.4991 12.959 61.2295 13.1414C60.9599 13.3238 60.5053 13.4163 59.8631 13.4163L59.8578 13.411ZM55.3252 9.53119C55.7772 9.53119 56.1895 9.4149 56.5621 9.17968C56.9348 8.94446 57.2308 8.62996 57.4475 8.22823C57.6642 7.82915 57.7726 7.38515 57.7726 6.89885C57.7726 6.41256 57.6589 5.94741 57.4343 5.55625C57.2096 5.1651 56.9057 4.85324 56.5225 4.61802C56.1392 4.3828 55.7243 4.26652 55.2724 4.26652C54.7676 4.26652 54.3209 4.38809 53.9298 4.63124C53.5386 4.87439 53.2268 5.19682 52.9915 5.5959C52.7563 5.99498 52.64 6.44691 52.64 6.94907C52.64 7.41686 52.7563 7.84765 52.9915 8.23881C53.2268 8.62996 53.5466 8.94182 53.9562 9.17704C54.3632 9.41226 54.8204 9.52854 55.3252 9.52854V9.53119Z" fill="white"/>
<path d="M68.582 13.6462C68.1142 13.6462 67.6041 13.5934 67.0597 13.4903C66.5126 13.3872 65.9787 13.2339 65.4581 13.0357C64.9374 12.8375 64.504 12.6023 64.1551 12.3327C63.8062 12.0631 63.608 11.7565 63.5552 11.4077C63.5208 11.2332 63.5234 11.0482 63.5684 10.8474C63.6107 10.6492 63.6952 10.4404 63.8168 10.2236C63.9384 10.0069 64.0864 9.77699 64.2582 9.53385C64.3982 9.34356 64.5542 9.22198 64.726 9.16913C64.8978 9.11627 65.0986 9.12684 65.3259 9.19555C65.6034 9.24841 65.8862 9.33827 66.1743 9.46778C66.4597 9.59728 66.7478 9.73735 67.0332 9.88535C67.3213 10.0334 67.62 10.1629 67.9318 10.2765C68.2437 10.3901 68.5661 10.4457 68.8965 10.4457C69.3828 10.4457 69.7607 10.3716 70.0303 10.2236C70.2999 10.0756 70.4347 9.87214 70.4347 9.61049C70.4347 9.4202 70.3791 9.26427 70.2655 9.1427C70.1519 9.02112 69.9959 8.91276 69.7977 8.81762C69.5995 8.72248 69.3669 8.64054 69.1079 8.56919C68.8463 8.50047 68.5661 8.42647 68.2595 8.34718C67.953 8.26789 67.649 8.18596 67.3345 8.09875C66.9011 7.97717 66.4835 7.82124 66.0844 7.63095C65.6853 7.44066 65.3206 7.19223 64.9903 6.8883C64.6599 6.58436 64.4009 6.21171 64.208 5.7677C64.0177 5.3237 63.9225 4.7819 63.9225 4.13967C63.9225 3.28866 64.1207 2.57772 64.5198 2.00421C64.9189 1.43069 65.5003 0.991972 66.2668 0.688038C67.0306 0.384103 67.9609 0.233458 69.0551 0.233458C69.3669 0.233458 69.6814 0.251958 69.9933 0.286316C70.3051 0.320673 70.6144 0.38146 70.9183 0.468676C71.2222 0.555892 71.5209 0.658966 71.8169 0.780539C72.1129 0.902113 72.4063 1.05012 72.7023 1.2219C73.2229 1.46505 73.4925 1.79542 73.511 2.21299C73.5268 2.63057 73.3815 3.05608 73.067 3.48952C72.8767 3.78552 72.6758 3.99696 72.467 4.1291C72.2583 4.2586 72.0415 4.29825 71.8169 4.24539C71.5394 4.17667 71.2407 4.06303 70.9183 3.9071C70.5959 3.75117 70.2576 3.60316 69.9008 3.46309C69.544 3.32302 69.1925 3.2543 68.8463 3.2543C68.5503 3.2543 68.2992 3.29394 68.0904 3.37059C67.8816 3.44988 67.7257 3.55295 67.6226 3.68245C67.5195 3.81195 67.4667 3.96524 67.4667 4.13703C67.4667 4.36168 67.5301 4.5414 67.6622 4.6709C67.7944 4.8004 67.9715 4.90876 68.1961 4.99598C68.4208 5.08319 68.6824 5.16248 68.9784 5.23119C69.2744 5.29991 69.5942 5.37127 69.9431 5.43998C70.4109 5.5272 70.8945 5.64349 71.3887 5.79149C71.883 5.93949 72.3349 6.15357 72.7419 6.43107C73.1489 6.70858 73.4793 7.08123 73.7304 7.55167C73.9814 8.01946 74.1083 8.6379 74.1083 9.4017C74.1083 10.7734 73.6299 11.8252 72.6758 12.5547C71.7217 13.2841 70.358 13.6489 68.5873 13.6489L68.582 13.6462Z" fill="white"/>
<path d="M86.4534 13.411C85.8112 13.411 85.3381 13.2973 85.0342 13.0727C84.7302 12.848 84.577 12.5679 84.577 12.2402L84.8386 11.7988C84.7355 11.9732 84.5347 12.1847 84.2387 12.4357C83.9427 12.6868 83.5621 12.9141 83.0916 13.1123C82.6212 13.3105 82.0398 13.411 81.3447 13.411C80.5465 13.411 79.7854 13.2365 79.0665 12.8903C78.345 12.5441 77.708 12.0604 77.1504 11.4447C76.5954 10.8289 76.1567 10.1285 75.8342 9.34883C75.5118 8.56653 75.3532 7.74194 75.3532 6.87507C75.3532 6.00819 75.5144 5.21268 75.8342 4.43831C76.1567 3.66658 76.598 2.97942 77.1636 2.37948C77.7292 1.77954 78.3661 1.30646 79.0797 0.960241C79.7907 0.61402 80.5465 0.439588 81.3447 0.439588C81.9869 0.439588 82.534 0.529447 82.9859 0.71445C83.4379 0.896811 83.8158 1.11089 84.1171 1.35403C84.421 1.59718 84.651 1.8324 84.8069 2.05705L84.5981 1.69233C84.5796 1.27475 84.725 0.960241 85.0289 0.74088C85.3328 0.524161 85.8138 0.415802 86.4746 0.415802C87.1009 0.415802 87.5476 0.510947 87.8172 0.701236C88.0867 0.891525 88.2506 1.1426 88.3114 1.45711C88.3722 1.76897 88.4012 2.09933 88.4012 2.44555V11.4341C88.4012 11.7644 88.3695 12.0842 88.3114 12.3987C88.2506 12.7106 88.0867 12.959 87.8172 13.1414C87.5476 13.3238 87.093 13.4163 86.4481 13.4163L86.4534 13.411ZM81.9208 9.53119C82.3728 9.53119 82.7851 9.4149 83.1577 9.17968C83.5304 8.94446 83.8264 8.62996 84.0431 8.22823C84.2598 7.82915 84.3682 7.38515 84.3682 6.89885C84.3682 6.41256 84.2545 5.94741 84.0299 5.55625C83.8052 5.1651 83.5013 4.85324 83.1181 4.61802C82.7348 4.3828 82.3199 4.26652 81.868 4.26652C81.3632 4.26652 80.9165 4.38809 80.5254 4.63124C80.1342 4.87439 79.8224 5.19682 79.5872 5.5959C79.3519 5.99498 79.2356 6.44691 79.2356 6.94907C79.2356 7.41686 79.3519 7.84765 79.5872 8.23881C79.8224 8.62996 80.1422 8.94182 80.5518 9.17704C80.9588 9.41226 81.416 9.52854 81.9208 9.52854V9.53119Z" fill="white"/>
<path d="M36.87 34.1447C36.5502 34.1447 36.3123 34.0997 36.1511 34.0072C35.9899 33.9147 35.8894 33.7799 35.8498 33.6029C35.8075 33.4258 35.7864 33.2196 35.7864 32.9844V23.055C35.7864 22.8039 35.8102 22.5925 35.863 22.426C35.9132 22.2569 36.0137 22.1353 36.1643 22.0613C36.315 21.9846 36.5581 21.9476 36.8964 21.9476C37.1977 21.9476 37.4303 21.9846 37.5888 22.0613C37.7474 22.1379 37.8584 22.2463 37.9166 22.389C37.9747 22.5317 38.0038 22.6956 38.0038 22.8806L37.9033 23.6365C38.0223 23.4171 38.1597 23.2004 38.3183 22.981C38.4769 22.7617 38.6804 22.5661 38.9235 22.389C39.1667 22.2119 39.46 22.0666 39.8062 21.9476C40.1498 21.8314 40.5753 21.7706 41.0801 21.7706C41.3312 21.7706 41.5717 21.7917 41.799 21.834C42.0263 21.8763 42.243 21.9397 42.4544 22.0216C42.6632 22.1062 42.8456 22.2014 42.9962 22.3124C43.1469 22.4207 43.2684 22.5397 43.3609 22.6665C43.4535 22.7934 43.4984 22.9387 43.4984 23.1079C43.4984 23.4779 43.3794 23.7924 43.1442 24.054C42.909 24.3157 42.6659 24.4452 42.4148 24.4452C42.1954 24.4452 42.0368 24.4161 41.9364 24.358C41.836 24.2998 41.7382 24.2364 41.6457 24.1703C41.5532 24.1043 41.4237 24.0408 41.2546 23.98C41.0854 23.9219 40.8185 23.8928 40.4485 23.8928C40.1974 23.8928 39.9331 23.943 39.6556 24.0435C39.3781 24.1439 39.1138 24.2919 38.8627 24.4848C38.6116 24.6778 38.4055 24.9262 38.2443 25.2275C38.0831 25.5288 38.0038 25.8829 38.0038 26.2873V33.0426C38.0038 33.2778 37.9773 33.4786 37.9271 33.6478C37.8769 33.8169 37.7712 33.9412 37.6126 34.0257C37.4514 34.1103 37.2056 34.1526 36.87 34.1526V34.1447Z" fill="white"/>
<path d="M51.739 34.2689C50.7294 34.2689 49.8308 34.0997 49.0432 33.7641C48.253 33.4284 47.5844 32.9712 47.0399 32.3898C46.4928 31.811 46.0779 31.1423 45.7925 30.3864C45.507 29.6306 45.3643 28.8166 45.3643 27.9417C45.3643 26.7815 45.6339 25.7481 46.1704 24.8416C46.7069 23.9351 47.4522 23.2162 48.401 22.6877C49.3498 22.1591 50.4387 21.8948 51.665 21.8948C52.5055 21.8948 53.256 22.0243 53.9194 22.2859C54.5828 22.5476 55.151 22.8964 55.6214 23.3325C56.0919 23.7686 56.454 24.2575 56.705 24.794C56.9561 25.3306 57.083 25.8697 57.083 26.4062C57.083 27.2625 56.8821 27.8651 56.4777 28.2087C56.0734 28.5523 55.5792 28.724 54.9898 28.724H47.7059C47.6901 29.4641 47.8857 30.0984 48.2979 30.6269C48.7102 31.1555 49.2309 31.5625 49.8599 31.848C50.4889 32.1334 51.1232 32.2761 51.7628 32.2761C52.2332 32.2761 52.6376 32.2523 52.9732 32.1995C53.3089 32.1493 53.6023 32.0832 53.856 31.9986C54.1071 31.914 54.3264 31.8321 54.5114 31.7475C54.6964 31.663 54.8603 31.5784 55.003 31.4965C55.1457 31.4119 55.2832 31.3537 55.4179 31.3194C55.5686 31.285 55.7166 31.2982 55.8593 31.3564C56.002 31.4145 56.1157 31.5282 56.2002 31.6973C56.3007 31.8321 56.3667 31.959 56.4011 32.0753C56.4355 32.1942 56.4513 32.3184 56.4513 32.4532C56.4513 32.6884 56.2505 32.9474 55.8461 33.2329C55.4417 33.5183 54.8841 33.7614 54.1705 33.9649C53.4569 34.1658 52.6455 34.2662 51.739 34.2662V34.2689ZM47.7059 27.2387H54.0304C54.3502 27.2387 54.5881 27.1964 54.7493 27.1119C54.9079 27.0273 54.9898 26.8027 54.9898 26.4327C54.9898 25.9622 54.8471 25.5367 54.5616 25.1588C54.2762 24.7808 53.8851 24.4743 53.3908 24.239C52.894 24.0038 52.3284 23.8849 51.6888 23.8849C50.9488 23.8849 50.2722 24.0329 49.659 24.3263C49.0459 24.6196 48.5622 25.0187 48.2107 25.5235C47.8566 26.0283 47.6901 26.5992 47.7059 27.2387Z" fill="white"/>
<path d="M64.7684 34.1948C64.483 34.1948 64.2531 34.1526 64.076 34.068C63.8989 33.9834 63.7535 33.8328 63.6346 33.6134L58.9725 23.4567C58.7875 23.0524 58.7452 22.7458 58.8457 22.537C58.9461 22.3282 59.1813 22.13 59.5513 21.945C59.887 21.7785 60.1724 21.723 60.4076 21.7811C60.6428 21.8393 60.8437 22.0639 61.0129 22.4498L64.7684 31.396L68.4473 22.7008C68.6323 22.315 68.8332 22.0375 69.0526 21.8683C69.2693 21.6992 69.6155 21.7335 70.086 21.9688C70.5379 22.1881 70.7652 22.4339 70.7652 22.7114C70.7652 22.9889 70.6885 23.2876 70.5379 23.6074L65.9022 33.587C65.8177 33.7878 65.6829 33.9411 65.4979 34.0416C65.3129 34.142 65.0697 34.1922 64.7658 34.1922L64.7684 34.1948Z" fill="white"/>
<path d="M74.3701 18.9215C74.0001 18.9215 73.7226 18.866 73.5376 18.7576C73.3526 18.6493 73.231 18.4933 73.1729 18.2925C73.1147 18.0916 73.0857 17.8564 73.0857 17.5868C73.0857 17.3172 73.12 17.0873 73.1861 16.8944C73.2522 16.7014 73.379 16.5587 73.564 16.4662C73.749 16.3737 74.0265 16.3262 74.3965 16.3262C74.7665 16.3262 75.0176 16.3764 75.2026 16.4768C75.3876 16.5772 75.5092 16.7279 75.5673 16.9314C75.6255 17.1322 75.6546 17.3675 75.6546 17.637C75.6546 17.9066 75.6255 18.1365 75.5673 18.3295C75.5092 18.5224 75.385 18.6704 75.2026 18.7708C75.0176 18.8713 74.7401 18.9215 74.3701 18.9215ZM74.3701 34.1446C74.0503 34.1446 73.8125 34.0997 73.6512 34.0072C73.4927 33.9147 73.3869 33.7852 73.3367 33.616C73.2865 33.4469 73.2601 33.246 73.2601 33.0108V23.055C73.2601 22.8198 73.2865 22.6189 73.3367 22.4498C73.3869 22.2833 73.4927 22.1564 73.6512 22.0718C73.8098 21.9873 74.0582 21.945 74.3939 21.945C74.7137 21.945 74.9489 21.9925 75.0996 22.085C75.2502 22.1775 75.3506 22.3071 75.4008 22.4762C75.4511 22.6453 75.4775 22.8541 75.4775 23.1052V33.0346C75.4775 33.2698 75.4511 33.4707 75.4008 33.6398C75.3506 33.809 75.2449 33.9332 75.0863 34.0178C74.9251 34.1023 74.6873 34.1446 74.3675 34.1446H74.3701Z" fill="white"/>
<path d="M84.5268 34.2689C83.5172 34.2689 82.6213 34.0997 81.831 33.7641C81.0408 33.4284 80.3721 32.9712 79.8277 32.3898C79.2806 31.811 78.8657 31.1423 78.5802 30.3864C78.2948 29.6306 78.1521 28.8166 78.1521 27.9417C78.1521 26.7815 78.4217 25.7481 78.9582 24.8416C79.4947 23.9351 80.24 23.2162 81.1888 22.6877C82.1376 22.1591 83.2265 21.8948 84.4528 21.8948C85.2932 21.8948 86.0438 22.0243 86.7098 22.2859C87.3732 22.5476 87.9388 22.8964 88.4092 23.3325C88.8797 23.7686 89.2417 24.2575 89.4928 24.794C89.7439 25.3306 89.8707 25.8697 89.8707 26.4062C89.8707 27.2625 89.6699 27.8651 89.2655 28.2087C88.8612 28.5523 88.3669 28.724 87.7776 28.724H80.4937C80.4779 29.4641 80.6734 30.0984 81.0857 30.6269C81.498 31.1555 82.0187 31.5625 82.6477 31.848C83.2767 32.1334 83.911 32.2761 84.5506 32.2761C85.021 32.2761 85.4254 32.2523 85.761 32.1995C86.0967 32.1493 86.39 32.0832 86.6438 31.9986C86.8948 31.914 87.1142 31.8321 87.2992 31.7475C87.4842 31.663 87.6481 31.5784 87.7908 31.4965C87.9335 31.4119 88.0736 31.3537 88.2084 31.3194C88.359 31.285 88.507 31.2982 88.6497 31.3564C88.7924 31.4145 88.9061 31.5282 88.9907 31.6973C89.0911 31.8321 89.1572 31.959 89.1915 32.0753C89.2259 32.1942 89.2417 32.3184 89.2417 32.4532C89.2417 32.6884 89.0409 32.9474 88.6365 33.2329C88.2321 33.5183 87.6745 33.7614 86.9609 33.9649C86.2473 34.1658 85.436 34.2662 84.5294 34.2662L84.5268 34.2689ZM80.4937 27.2387H86.8182C87.138 27.2387 87.3758 27.1964 87.5371 27.1119C87.6956 27.0273 87.7776 26.8027 87.7776 26.4327C87.7776 25.9622 87.6349 25.5367 87.3494 25.1588C87.064 24.7808 86.6728 24.4743 86.1786 24.239C85.6844 24.0038 85.1162 23.8849 84.4766 23.8849C83.7366 23.8849 83.06 24.0329 82.4495 24.3263C81.8363 24.6196 81.3527 25.0187 80.9985 25.5235C80.647 26.0283 80.4779 26.5992 80.4937 27.2387Z" fill="white"/>
<path d="M96.6234 34.068C96.3723 34.068 96.1741 34.031 96.0314 33.9543C95.8887 33.8777 95.7803 33.7772 95.7037 33.653C95.627 33.5288 95.5742 33.3887 95.5398 33.2381L91.6336 23.3087C91.549 23.0576 91.512 22.8462 91.52 22.6797C91.5279 22.5105 91.5966 22.3678 91.7208 22.2515C91.845 22.1352 92.0353 22.0322 92.2864 21.9502C92.6908 21.7996 93 21.7626 93.2194 21.8366C93.4361 21.9132 93.6131 22.1352 93.7479 22.5052L96.6208 30.167L99.2928 22.6823C99.343 22.5475 99.4064 22.418 99.4804 22.2912C99.5544 22.1643 99.6681 22.0612 99.8213 21.9767C99.972 21.8921 100.165 21.8498 100.403 21.8498C100.672 21.8498 100.876 21.8921 101.019 21.9767C101.161 22.0612 101.28 22.1617 101.373 22.278C101.465 22.3942 101.529 22.5211 101.56 22.6559L104.206 30.2172L107.079 22.6321C107.229 22.2277 107.42 21.9687 107.644 21.8498C107.872 21.7335 108.186 21.7494 108.591 21.9C108.945 22.019 109.18 22.1855 109.296 22.4048C109.412 22.6242 109.389 22.9334 109.22 23.3378L105.313 33.2672C105.263 33.402 105.2 33.5315 105.123 33.6583C105.046 33.7852 104.938 33.8856 104.795 33.9596C104.653 34.0336 104.465 34.0733 104.23 34.0733C103.994 34.0733 103.809 34.0389 103.675 33.9728C103.54 33.9067 103.432 33.801 103.347 33.6583C103.262 33.5156 103.188 33.3597 103.12 33.1932L100.424 25.4309L97.7017 33.1932C97.6357 33.394 97.5643 33.5632 97.4876 33.698C97.411 33.8327 97.3053 33.9279 97.1731 33.9887C97.0384 34.0468 96.8533 34.0759 96.6181 34.0759L96.6234 34.068Z" fill="white"/>
</svg>
